<?xml version="1.0" encoding="UTF-8"?>
<svg width="228px" height="37px" viewBox="0 0 228 37" version="1.1" xmlns="http://www.w3.org/2000/svg" xmlns:xlink="http://www.w3.org/1999/xlink">
    <title>RivaVoice</title>
    <g id="Page-1" stroke="none" stroke-width="1" fill="none" fill-rule="evenodd">
        <g id="Japan" transform="translate(-424, -58)" fill-rule="nonzero">
            <g id="RivaVoice" transform="translate(424.35, 58.15)">
                <path d="M0,35.85 L6.4,35.85 L6.4,24.8 L12.3,24.8 L19.25,35.85 L26.85,35.85 L18.8,24.1 C23.2,22.65 25.65,19.1 25.65,13.95 C25.65,7.7 22,3.15 13.7,3.15 L0,3.15 L0,35.85 Z M6.4,18.85 L6.4,9.1 L13.8,9.1 C17.85,9.1 19.2,11.15 19.2,13.95 C19.2,16.75 17.85,18.85 13.8,18.85 L6.4,18.85 Z" id="Shape" fill="#4E3FCA"></path>
                <path d="M34.25,7.95 C36.55,7.95 38.2,6.3 38.2,4 C38.2,1.7 36.55,0 34.25,0 C31.95,0 30.3,1.7 30.3,4 C30.3,6.3 31.95,7.95 34.25,7.95 Z M31.25,35.85 L37.2,35.85 L37.2,11.15 L31.25,11.15 L31.25,35.85 Z" id="Shape" fill="#4E3FCA"></path>
                <polygon id="Path" fill="#4E3FCA" points="51.05 35.85 58.2 35.85 67.9 11.15 61.55 11.15 54.7 30.4 47.85 11.15 41.35 11.15"></polygon>
                <path d="M81.35,36.5 C85.25,36.5 88.6,34.65 90.1,31 L90.1,35.85 L95.55,35.85 L95.55,23.7 C95.55,15.75 90.15,10.5 82.4,10.5 C74.55,10.5 69.05,15.9 69.05,23.75 C69.05,32.2 75.35,36.5 81.35,36.5 Z M82.35,30.95 C78,30.95 75.05,27.85 75.05,23.5 C75.05,19.15 78,16.05 82.35,16.05 C86.7,16.05 89.6,19.15 89.6,23.5 C89.6,27.85 86.7,30.95 82.35,30.95 Z" id="Shape" fill="#4E3FCA"></path>
                <polygon id="Path" fill-opacity="0.85" fill="#000000" points="110.85 35.85 117.9 35.85 129.75 3.15 122.95 3.15 114.45 28.4 105.9 3.15 98.95 3.15"></polygon>
                <path d="M143,36.5 C150.8,36.5 156.3,31 156.3,23.5 C156.3,16 150.8,10.5 143,10.5 C135.2,10.5 129.7,16 129.7,23.5 C129.7,31 135.2,36.5 143,36.5 Z M143,30.95 C138.65,30.95 135.7,27.85 135.7,23.5 C135.7,19.15 138.65,16.05 143,16.05 C147.35,16.05 150.25,19.15 150.25,23.5 C150.25,27.85 147.35,30.95 143,30.95 Z" id="Shape" fill-opacity="0.85" fill="#000000"></path>
                <path d="M164.05,7.95 C166.35,7.95 168,6.3 168,4 C168,1.7 166.35,0 164.05,0 C161.75,0 160.1,1.7 160.1,4 C160.1,6.3 161.75,7.95 164.05,7.95 Z M161.05,35.85 L167,35.85 L167,11.15 L161.05,11.15 L161.05,35.85 Z" id="Shape" fill-opacity="0.85" fill="#000000"></path>
                <path d="M185.05,36.5 C191.75,36.5 196.65,32.45 197.85,26.6 L191.85,26.6 C190.8,29.25 188.3,30.95 185.05,30.95 C180.7,30.95 177.75,27.85 177.75,23.5 C177.75,19.15 180.7,16.05 185.05,16.05 C188.3,16.05 190.8,17.75 191.85,20.4 L197.85,20.4 C196.65,14.55 191.75,10.5 185.05,10.5 C177.25,10.5 171.75,16 171.75,23.5 C171.75,31 177.25,36.5 185.05,36.5 Z" id="Path" fill-opacity="0.85" fill="#000000"></path>
                <path d="M214.05,36.5 C219.9,36.5 224.4,33.45 226.25,28.75 L219.9,28.75 C218.65,30.35 216.7,31.1 214.05,31.1 C210.55,31.1 207.8,29.2 207,25.6 L227.25,25.6 L227.25,23.5 C227.25,16 221.85,10.5 214.05,10.5 C206.25,10.5 200.75,16 200.75,23.5 C200.75,31 206.25,36.5 214.05,36.5 Z M207.15,20.85 C208.1,17.6 210.7,15.9 214.05,15.9 C217.3,15.9 220,17.55 220.95,20.85 L207.15,20.85 Z" id="Shape" fill-opacity="0.85" fill="#000000"></path>
            </g>
        </g>
    </g>
</svg>